HIERARCHY
ROOT joint_0
{
	OFFSET 0.000000 0.000000 0.000000
	CHANNELS 6 Xposition Yposition Zposition Zrotation Yrotation Xrotation 
	JOINT joint_1
	{
		OFFSET 5.091736 1.614004 124.993042
		CHANNELS 3 Zrotation Yrotation Xrotation
		JOINT joint_2
		{
			OFFSET -7.754517 4.363039 113.797974
			CHANNELS 3 Zrotation Yrotation Xrotation
			JOINT joint_3
			{
				OFFSET -8.706238 5.370684 113.558960
				CHANNELS 3 Zrotation Yrotation Xrotation
				JOINT joint_4
				{
					OFFSET 2.800659 5.843341 158.209106
					CHANNELS 3 Zrotation Yrotation Xrotation
					JOINT joint_5
					{
						OFFSET 20.525452 8.617594 92.185913
						CHANNELS 3 Zrotation Yrotation Xrotation
						End Site
						{
							OFFSET 0.000000 0.000000 0.000000
						}
					}
				}
				JOINT joint_6
				{
					OFFSET -4.183167 -30.671114 90.057007
					CHANNELS 3 Zrotation Yrotation Xrotation
					JOINT joint_7
					{
						OFFSET -24.729675 -138.200195 -6.097900
						CHANNELS 3 Zrotation Yrotation Xrotation
						JOINT joint_8
						{
							OFFSET 16.966858 -51.567780 -315.633057
							CHANNELS 3 Zrotation Yrotation Xrotation
							JOINT joint_9
							{
								OFFSET 129.835388 -40.459091 176.646973
								CHANNELS 3 Zrotation Yrotation Xrotation
								End Site
								{
									OFFSET 0.000000 0.000000 0.000000
								}
							}
						}
					}
				}
				JOINT joint_10
				{
					OFFSET 7.338745 37.199406 87.346069
					CHANNELS 3 Zrotation Yrotation Xrotation
					JOINT joint_11
					{
						OFFSET 20.327698 137.488367 -20.779053
						CHANNELS 3 Zrotation Yrotation Xrotation
						JOINT joint_12
						{
							OFFSET 150.763062 48.206573 -278.419922
							CHANNELS 3 Zrotation Yrotation Xrotation
							JOINT joint_13
							{
								OFFSET 12.571289 -162.355251 152.253906
								CHANNELS 3 Zrotation Yrotation Xrotation
								End Site
								{
									OFFSET 0.000000 0.000000 0.000000
								}
							}
						}
					}
				}
			}
		}
	}
	JOINT joint_14
	{
		OFFSET -7.600342 -77.970001 -95.010986
		CHANNELS 3 Zrotation Yrotation Xrotation
		JOINT joint_15
		{
			OFFSET -2.666199 -21.455009 -443.700989
			CHANNELS 3 Zrotation Yrotation Xrotation
			JOINT joint_16
			{
				OFFSET -22.487976 -19.310196 -481.059006
				CHANNELS 3 Zrotation Yrotation Xrotation
				JOINT joint_17
				{
					OFFSET 177.776611 65.723053 -82.445997
					CHANNELS 3 Zrotation Yrotation Xrotation
					End Site
					{
						OFFSET 0.000000 0.000000 0.000000
					}
				}
			}
		}
	}
	JOINT joint_18
	{
		OFFSET 17.063904 75.900681 -95.447021
		CHANNELS 3 Zrotation Yrotation Xrotation
		JOINT joint_19
		{
			OFFSET -21.510803 8.101997 -443.629944
			CHANNELS 3 Zrotation Yrotation Xrotation
			JOINT joint_20
			{
				OFFSET -7.473022 -28.501774 -481.230011
				CHANNELS 3 Zrotation Yrotation Xrotation
				JOINT joint_21
				{
					OFFSET 177.760559 -64.115177 -83.737001
					CHANNELS 3 Zrotation Yrotation Xrotation
					End Site
					{
						OFFSET 0.000000 0.000000 0.000000
					}
				}
			}
		}
	}
}
MOTION
Frames: 5
Frame Time: 0.016667
481.206818 -62.882290 1122.578003 12.439732 -0.754377 0.446454 -0.101047 1.823118 2.554018 -0.189099 -0.170473 -0.481423 -0.132720 0.430878 0.454202 -1.155380 3.326392 3.831406 0.000000 0.000000 0.000000 3.370730 0.104873 4.950247 13.717803 0.448956 -2.811978 -178.482653 38.662882 177.155532 0.000000 0.000000 0.000000 -7.768995 17.642741 -3.265425 -18.037547 6.121833 2.382045 53.451474 -18.957729 113.476365 0.000000 0.000000 0.000000 -10.910567 3.307617 0.589850 -10.720986 -0.336441 -0.595429 -10.430358 -5.199463 -2.913032 0.000000 0.000000 0.000000 1.393615 -3.122499 -0.464228 1.267887 6.837258 6.257029 2.471950 -4.975204 -0.649666 0.000000 0.000000 0.000000 
481.307770 -62.853600 1122.564941 12.432140 -0.784605 0.435306 -0.109366 1.853110 2.560741 -0.196683 -0.174814 -0.484494 -0.140332 0.438138 0.457431 -1.160578 3.345942 3.846636 0.000000 0.000000 0.000000 3.402422 0.107315 4.963934 13.770078 0.435082 -2.810594 -178.449898 38.698201 177.169286 0.000000 0.000000 0.000000 -7.761001 17.609260 -3.228565 -17.993671 6.129154 2.334804 53.509448 -18.936881 113.423062 0.000000 0.000000 0.000000 -10.909737 3.340084 0.592904 -10.719464 -0.324358 -0.599465 -10.428562 -5.199998 -2.911899 0.000000 0.000000 0.000000 1.396543 -3.079871 -0.438728 1.271550 6.830846 6.237021 2.473394 -4.975531 -0.649035 0.000000 0.000000 0.000000 
481.456940 -62.844223 1122.556030 12.421170 -0.814403 0.426646 -0.117528 1.874971 2.558248 -0.204223 -0.179265 -0.485287 -0.148141 0.443964 0.459044 -1.165887 3.364884 3.863290 0.000000 0.000000 0.000000 3.435993 0.113853 4.982382 13.818459 0.419548 -2.802495 -178.420155 38.729718 177.182056 0.000000 0.000000 0.000000 -7.754812 17.580052 -3.191688 -17.953823 6.140724 2.297218 53.567049 -18.911823 113.375361 0.000000 0.000000 0.000000 -10.908228 3.376372 0.593813 -10.717146 -0.315978 -0.601481 -10.426020 -5.201088 -2.910260 0.000000 0.000000 0.000000 1.401997 -3.012355 -0.396894 1.278534 6.781801 6.184657 2.469602 -4.957445 -0.644057 0.000000 0.000000 0.000000 
481.671509 -62.860794 1122.552002 12.407153 -0.843309 0.420218 -0.124775 1.883320 2.544765 -0.211213 -0.181073 -0.483013 -0.155500 0.445489 0.458157 -1.171632 3.382811 3.883080 0.000000 0.000000 0.000000 3.470519 0.121711 5.006186 13.841245 0.399670 -2.782035 -178.410670 38.742959 177.194563 0.000000 0.000000 0.000000 -7.754682 17.560128 -3.157669 -17.921307 6.159098 2.272715 53.621279 -18.885684 113.339814 0.000000 0.000000 0.000000 -10.906334 3.417847 0.591470 -10.714247 -0.312202 -0.598065 -10.422753 -5.203164 -2.907981 0.000000 0.000000 0.000000 1.409973 -2.918968 -0.337121 1.288956 6.689096 6.098465 2.460585 -4.921222 -0.634831 0.000000 0.000000 0.000000 
481.946899 -62.899914 1122.552002 12.389666 -0.871781 0.415823 -0.131442 1.878938 2.522700 -0.218319 -0.179531 -0.480985 -0.162597 0.443490 0.457412 -1.177506 3.399800 3.904661 0.000000 0.000000 0.000000 3.507314 0.132998 5.033790 13.849273 0.376492 -2.750595 -178.412417 38.745500 177.207355 0.000000 0.000000 0.000000 -7.759001 17.546145 -3.124825 -17.892860 6.183649 2.258596 53.675771 -18.856001 113.311694 0.000000 0.000000 0.000000 -10.903858 3.464464 0.586971 -10.710577 -0.312961 -0.591437 -10.418719 -5.206215 -2.905033 0.000000 0.000000 0.000000 1.420543 -2.798227 -0.258785 1.302936 6.550579 5.977190 2.446188 -4.865254 -0.620852 0.000000 0.000000 0.000000 
